<?xml version="1.0" encoding="UTF-8"?>
<svg width="800" height="800" version="1.1" viewBox="0 0 800 800" xmlns="http://www.w3.org/2000/svg">
 <g fill="#0f0">
  <path d="m400 100c-110.46 0-200 89.543-200 200 0 66.274 32.291 125.08 82.031 161.72-41.091 20.545-82.031 61.637-82.031 102.73v35.547h400v-35.547c0-41.091-40.94-82.183-82.031-102.73 49.74-36.637 82.031-95.443 82.031-161.72 0-110.46-89.543-200-200-200zm0 50c82.843 0 150 67.157 150 150s-67.157 150-150 150-150-67.157-150-150 67.157-150 150-150z"/>
  <path d="m250 350h300v50h-300z"/>
  <circle cx="325" cy="300" r="25"/>
  <circle cx="475" cy="300" r="25"/>
 </g>
</svg>